<svg width="760" height="1080" viewBox="0 0 760 1080" xmlns="http://www.w3.org/2000/svg">
  <defs>
    <linearGradient id="bg" x1="0" y1="0" x2="0" y2="1"><stop stop-color="#0b1119"/><stop offset=".62" stop-color="#121a27"/><stop offset="1" stop-color="#05070b"/></linearGradient>
    <linearGradient id="accent" x1="0" y1="0" x2="1" y2="0"><stop stop-color="#315cff"/><stop offset="1" stop-color="#9a38ff"/></linearGradient>
    <linearGradient id="city" x1="0" y1="0" x2="0" y2="1"><stop stop-color="#222d42"/><stop offset="1" stop-color="#0a0e14"/></linearGradient>
    <radialGradient id="halo"><stop stop-color="#7e91ff" stop-opacity=".34"/><stop offset="1" stop-color="#7d4dff" stop-opacity="0"/></radialGradient>
  </defs>
  <rect width="760" height="1080" rx="26" fill="url(#bg)"/>
  <rect x="18" y="18" width="724" height="1044" rx="18" fill="none" stroke="#263044" stroke-width="2"/>
  <text x="380" y="67" text-anchor="middle" fill="#e7ecf7" font-family="Arial, Helvetica, sans-serif" font-size="20" font-weight="700" letter-spacing="10">ORYIX</text>
  <text x="380" y="150" text-anchor="middle" fill="#fff" font-family="Arial, Helvetica, sans-serif" font-size="65" font-weight="900">CONFIANCE</text>
  <text x="380" y="216" text-anchor="middle" fill="#fff" font-family="Arial, Helvetica, sans-serif" font-size="65" font-weight="900">EN SOI</text>
  <rect x="182" y="244" width="396" height="4" rx="2" fill="url(#accent)"/>
  <text x="380" y="293" text-anchor="middle" fill="#cfd8e7" font-family="Arial, Helvetica, sans-serif" font-size="19" font-weight="700" letter-spacing="2">DEVIENS LA MEILLEURE VERSION</text>
  <text x="380" y="325" text-anchor="middle" fill="#94adff" font-family="Arial, Helvetica, sans-serif" font-size="19" font-weight="700" letter-spacing="3">DE TOI</text>
  <circle cx="380" cy="590" r="255" fill="url(#halo)"/>
  <rect x="0" y="650" width="760" height="240" fill="url(#city)"/>
  <g fill="#192235"><rect x="24" y="585" width="82" height="305"/><rect x="118" y="635" width="74" height="255"/><rect x="205" y="548" width="104" height="342"/><rect x="323" y="610" width="68" height="280"/><rect x="404" y="525" width="118" height="365"/><rect x="535" y="600" width="82" height="290"/><rect x="631" y="560" width="105" height="330"/></g>
  <g fill="#8ea7ff" opacity=".56"><rect x="47" y="622" width="9" height="9"/><rect x="72" y="661" width="9" height="9"/><rect x="228" y="596" width="10" height="10"/><rect x="258" y="645" width="10" height="10"/><rect x="445" y="580" width="10" height="10"/><rect x="478" y="623" width="10" height="10"/><rect x="660" y="606" width="10" height="10"/><rect x="694" y="659" width="10" height="10"/></g>
  <g transform="translate(300 455)"><circle cx="80" cy="68" r="38" fill="#06080c"/><path d="M18 242c6-79 27-127 62-144 35 17 56 65 62 144H18Z" fill="#06080c"/><path d="M38 145 8 286M122 145l30 141" stroke="#06080c" stroke-width="24" stroke-linecap="round"/><path d="M63 236 40 365M97 236l23 129" stroke="#06080c" stroke-width="26" stroke-linecap="round"/></g>
  <text x="380" y="858" text-anchor="middle" fill="#d8dfed" font-family="Arial, Helvetica, sans-serif" font-size="18" letter-spacing="4">PRENDS TA PLACE</text>
  <rect x="0" y="889" width="760" height="191" fill="#05070b"/>
  <g transform="translate(314 928)"><path d="M0 0h132L66 120 0 0Z" fill="none" stroke="#fff" stroke-width="9"/><path d="M25 21h82L66 93 25 21Z" fill="none" stroke="#8b5cf6" stroke-width="7"/><path d="M17 11 65 56 114 11" fill="none" stroke="#fff" stroke-width="8"/></g>
  <text x="380" y="1050" text-anchor="middle" fill="#f3f5fa" font-family="Arial, Helvetica, sans-serif" font-size="23" font-weight="700" letter-spacing="12">ORYIX</text>
</svg>
