<svg width="760" height="1080" viewBox="0 0 760 1080" xmlns="http://www.w3.org/2000/svg">
  <defs>
    <linearGradient id="bg" x1="0" y1="0" x2="0" y2="1"><stop stop-color="#0a0f17"/><stop offset=".6" stop-color="#121824"/><stop offset="1" stop-color="#05070b"/></linearGradient>
    <linearGradient id="accent" x1="0" y1="0" x2="1" y2="0"><stop stop-color="#315cff"/><stop offset="1" stop-color="#9a38ff"/></linearGradient>
    <linearGradient id="tunnel" x1="0" y1="0" x2="1" y2="1"><stop stop-color="#1b2432"/><stop offset=".5" stop-color="#0f141d"/><stop offset="1" stop-color="#06080c"/></linearGradient>
  </defs>
  <rect width="760" height="1080" rx="26" fill="url(#bg)"/>
  <rect x="18" y="18" width="724" height="1044" rx="18" fill="none" stroke="#263044" stroke-width="2"/>
  <text x="380" y="67" text-anchor="middle" fill="#e7ecf7" font-family="Arial, Helvetica, sans-serif" font-size="20" font-weight="700" letter-spacing="10">ORYIX</text>
  <text x="380" y="144" text-anchor="middle" fill="#fff" font-family="Arial, Helvetica, sans-serif" font-size="56" font-weight="900">CONSTRUIRE</text>
  <text x="380" y="207" text-anchor="middle" fill="#fff" font-family="Arial, Helvetica, sans-serif" font-size="56" font-weight="900">EN SILENCE</text>
  <rect x="180" y="237" width="400" height="4" rx="2" fill="url(#accent)"/>
  <text x="380" y="287" text-anchor="middle" fill="#cfd8e7" font-family="Arial, Helvetica, sans-serif" font-size="19" font-weight="700" letter-spacing="2">DES RÉSULTATS</text>
  <text x="380" y="320" text-anchor="middle" fill="#94adff" font-family="Arial, Helvetica, sans-serif" font-size="19" font-weight="700" letter-spacing="3">PAS DES EXCUSES</text>
  <rect x="0" y="350" width="760" height="540" fill="url(#tunnel)"/>
  <path d="M0 350h760L635 890H125L0 350Z" fill="#101722"/>
  <path d="M115 350h530L535 890H225L115 350Z" fill="#080b10" stroke="#263247" stroke-width="4"/>
  <path d="M195 350h370L480 890H280L195 350Z" fill="#0e141e"/>
  <g fill="#293649" opacity=".75"><rect x="238" y="420" width="284" height="25"/><rect x="250" y="480" width="260" height="24"/><rect x="264" y="540" width="232" height="23"/><rect x="278" y="600" width="204" height="22"/><rect x="291" y="659" width="178" height="21"/><rect x="305" y="718" width="150" height="20"/><rect x="318" y="776" width="124" height="18"/></g>
  <path d="M360 420 332 890M400 420l28 470" stroke="#5d71a6" stroke-opacity=".25" stroke-width="4"/>
  <g transform="translate(330 560)"><circle cx="50" cy="44" r="25" fill="#020305"/><path d="M12 175c4-62 16-100 38-117 22 17 34 55 38 117H12Z" fill="#020305"/><path d="M26 107 0 216M74 107l28 109" stroke="#020305" stroke-width="18" stroke-linecap="round"/></g>
  <text x="380" y="858" text-anchor="middle" fill="#d8dfed" font-family="Arial, Helvetica, sans-serif" font-size="18" letter-spacing="4">TRAVAILLE. AVANCE. LAISSE PARLER.</text>
  <rect x="0" y="889" width="760" height="191" fill="#05070b"/>
  <g transform="translate(314 928)"><path d="M0 0h132L66 120 0 0Z" fill="none" stroke="#fff" stroke-width="9"/><path d="M25 21h82L66 93 25 21Z" fill="none" stroke="#8b5cf6" stroke-width="7"/><path d="M17 11 65 56 114 11" fill="none" stroke="#fff" stroke-width="8"/></g>
  <text x="380" y="1050" text-anchor="middle" fill="#f3f5fa" font-family="Arial, Helvetica, sans-serif" font-size="23" font-weight="700" letter-spacing="12">ORYIX</text>
</svg>
